/* XPM */
static char *result[] = {
/* columns rows colors chars-per-pixel */
"64 64 174 2 ",
"   c black",
".  c #050903",
"X  c #0B0B0B",
"o  c #0A1605",
"O  c #171E07",
"+  c #131313",
"@  c #1B1B1B",
"#  c #2F1B0B",
"$  c #301F0D",
"%  c #072F04",
"&  c #13230A",
"*  c #0B3907",
"=  c #16330E",
"-  c #1C2416",
";  c #1B3B12",
":  c #24290E",
">  c #25221B",
",  c #362312",
"<  c #332B13",
"1  c #3D2E16",
"2  c #2F371F",
"3  c gray14",
"4  c #2A2621",
"5  c #2D2A22",
"6  c gray18",
"7  c #352E26",
"8  c #322F2D",
"9  c #333324",
"0  c #363E26",
"q  c #33332A",
"w  c #3B342B",
"e  c #3F3C2D",
"r  c gray20",
"t  c #3A3A3A",
"y  c #43331A",
"u  c #4A361B",
"i  c #533E1E",
"p  c #40382D",
"a  c #463D33",
"s  c #11460B",
"d  c #1E4216",
"f  c #175110",
"g  c #1E5D16",
"h  c #214718",
"j  c #27531B",
"k  c #24631B",
"l  c #27681D",
"z  c #3E462A",
"x  c #2F6323",
"c  c #2C6E22",
"v  c #326B26",
"b  c #2E7123",
"n  c #37732A",
"m  c #35792A",
"M  c #387C2D",
"N  c #40482E",
"B  c #5E4224",
"V  c #474E33",
"C  c #50443A",
"Z  c #56483E",
"A  c #58493F",
"S  c #4A5135",
"D  c #53563B",
"F  c #53583C",
"G  c #694626",
"H  c #774F2B",
"J  c #7F532E",
"K  c #54643D",
"L  c #444444",
"P  c #4B4B4B",
"I  c #5A4C41",
"U  c #585848",
"Y  c gray32",
"T  c #5A5A5A",
"R  c #625146",
"E  c #63554B",
"W  c #69564B",
"Q  c #6D5A4D",
"!  c #795E47",
"~  c #6E5A50",
"^  c #715D52",
"/  c #5A6246",
"(  c #606447",
")  c #666A4E",
"_  c #696C50",
"`  c #766155",
"'  c #7E665A",
"]  c #6D7357",
"[  c #737354",
"{  c gray39",
"}  c #6D6D6D",
"|  c #7A7E63",
" . c #747474",
".. c #D50B08",
"X. c #D41212",
"o. c #E30000",
"O. c #E31313",
"+. c #FA1A1A",
"@. c #DF2C26",
"#. c #FE2525",
"$. c #FE3736",
"%. c #8D4B39",
"&. c #875733",
"*. c #FF4A18",
"=. c #826A5E",
"-. c #82735A",
";. c #866E61",
":. c #8C7366",
">. c #81766B",
",. c #8F7569",
"<. c #937B63",
"1. c #917669",
"2. c #93786B",
"3. c #987C6F",
"4. c #877B74",
"5. c #FE4747",
"6. c #FF5353",
"7. c #FF6969",
"8. c #FF7A7A",
"9. c #3F832F",
"0. c #3F8530",
"q. c #428636",
"w. c #428E35",
"e. c #448839",
"r. c #47993B",
"t. c #4BA13F",
"y. c #5E8F4D",
"u. c #4D9040",
"i. c #539546",
"p. c #6C8C53",
"a. c #4DA440",
"s. c #52AE46",
"d. c #54B449",
"f. c #5BBF4F",
"g. c #63A256",
"h. c #6E9F65",
"j. c #5ECE56",
"k. c #66DE5E",
"l. c #6EEE66",
"z. c #76FD6E",
"x. c #9E866E",
"c. c #938E6E",
"v. c #9D8072",
"b. c #989273",
"n. c #A78F77",
"m. c #A58578",
"M. c #A8877A",
"N. c #AA897C",
"B. c #A69278",
"V. c #AFA47F",
"C. c #838383",
"Z. c gray54",
"A. c #9A9089",
"S. c #959595",
"D. c #AC8E82",
"F. c #B29184",
"G. c #BA998C",
"H. c #A0A0A0",
"J. c gray67",
"K. c #C09288",
"L. c #E0908C",
"P. c #FF9B9B",
"I. c #C1A194",
"U. c #CAA99C",
"Y. c #D1AA94",
"T. c #D2B1A4",
"R. c #DAB9AC",
"E. c #DDC1B6",
"W. c #E0C5BB",
"Q. c #C8C7C6",
"!. c #E3CBC2",
"~. c #EBDAD2",
"^. c #EDDED9",
"/. c None",
/* pixels */
"/./././././././././././././././././././././././././././././././././././././././././././././././././././././././././././././././.",
"/././././././././././././././. .Z././././././././././././././././.Z.} /././././././././././././././././././././././././././././.",
"/./././././././././././././.t { L /./././././././././././././././.L { t /./././././././././././././././././././././././././././.",
"/./././././././././././././.  6 3 3 J.H././././././././././.H.J.3 3 6   /./././././././././././././././././././././././././././.",
"/././././././././././././././.@   3 3 C.T L /./././././.L T C.3 +   @ /././././././././././././././././././././././././././././.",
"/././././././././././././././.  < t # @ 3 6 3 ,.N.N.N.3 6 3 @ # t <   /././././././././././././././././././././././././././././.",
"/./././././././././././././././.  u < @ t     D.T.T.I.    t @ < u   /./././././././././././././././././././././././././././././.",
"/./././././././././././././././././.  # #   T.W.!.!.!.T.  # #   /./././././././././././././././././././././././././././././././.",
"/./././././././././././././././././././.W 2.E.T.T.E.T.E.2.` /./././././././././././././././././././././././././././././././././.",
"/././././././././././././././././././.I.2.:.!.I.G.^.G.!.:.2.I./././././././././././././././././././././././././././././././././.",
"/./././././././././././././././././.l ` 2.8.o.%.! F.! o.8.2.` M /./././././././././././././././././././././././././././././././.",
"/./././././././././././././././././.l u.~ :.P.K.F.Y.F.P.:.~ C M /./././././././././././././././././././././././././././././././.",
"/./././././././././././././././././.k i.( [ L.B.b.V.c.L.[ _ F h././././././././././././././././././././././././././././././././.",
"/./././././././././././././././././.g g.m b :.y.i.i.q.:.b g.i./././././././././././././././././././././././././././././././.t t ",
"/./././././././././././.k.l.l.f.s././.M s b u.u.u.e.e.b b s M /././.;.~ W 7 /././././././././././././././././././././.6       6 ",
"/././././././././././.d.k.z.j.j.k.j.v.6 s g g c b b b g f * g ` 7 A F.F.F.F.v.:./././././././././././././././././.6 6 H H H : /.",
"/././././././././.w.t.d.j.s.j.l.k.t.R.R.W.o % * * s s %   T.I.I.U.I.I.U.U.U.U.U.:./././././././././././././././.    H H 1 1 /./.",
"/./././././././.J.r.r.0.r.f.j.j.s.9.N.N.N.N.;.^ ~ ;.F.N.N.N.N.N.N.2.:.F.F.U.N.N.;.R /./././././././././././.3   H H , i i i /./.",
"/./././././.A.Q.~.r.r.r.d.a.a.t.x x m.m.N.v.' ;.;.:.v.N.m.m.v.v.v.' :.:.,.N.;.;.R a /./././././././././.L   H H H i i /././././.",
"/././././.S.E.!.E.2.p.r.9.9.n x d d :.:.:.` a ' ;.W ;.:.:.:.:.:.' ~ R > 4 ;.R a a /./././././././././.    H , , i i /./././././.",
"/./././.C.M.v.N.N.' K x x v j d = 3 :.:.:.` a ' ;.W ;.:.:.:.:.:.' ~ R > > > 7 W W /./././././././.t   &.< , i /././././././././.",
"/./././.3.=.:.I.2.^ I e = d = & & 3 =.=.` A A ` ' W ' =.=.=.W W W ~ > > > > I 2.' /././././.  & .     u i i /./././././././././.",
"/././.N.2.v.I.E.E.N.;.E A 5 & o @ 3 3 W W R R R R ~ W W W W R R ~ a > > > > W W a /./././.O & z z z   i /./././././././././././.",
"/./.G.I.F.G.N.v.' W Z a 7 > o + + + 3 3 @ : : ` ;.` 7 > > 7 > > > a 7 > > > A C a /./.u < O O 0 5 3 /./././././././././././././.",
"/./.N.F.1.=.^ Q R I V w > /./.@ > + 3 3 - 0 0 V V ` I 7 7 > > > 7 w 7 > > > C a I /./.B y > > > /./././././././././././././././.",
"/.4.m.N.' R C C C C a w > /./.> 7 + 3 3 : z z 2 2 ` ~ 7 7 > > > p 9 7 > > 5 C p R ' u G i 3 3 + /./././././././././././././././.",
"/.` ;.U.v.a   /././././././././.> R X X z 2 2 2 2 @ > a a a > > > > p 7 7 7 5 R N.I.< u < 3 /.+ /./././././././././././././././.",
"/.` v.G.2.' 7 /././././././././.p W ~ ~ 2 2 2 2 2 6 @ W ;.p 7 7 > > /././.7 a =.N.u B u @ >.+ + /./././././././././././././././.",
"/.W v.N.2.:.7 /././././././././.> p p p o 2 2 & O X 3 3 @ @ > 6 0 > 6 0 V /.G H J H B G v.R + /././././././././././././././././.",
"/.C ` :.' ' > /./././././././.0 F / / V 7 p X X X X X @ 3 3 @ V / @ V 0 V /./.y H u u @ W 5 q /././././././././././././././././.",
"/./.C ' C W a /./././././././.0 V D D V 7 p a a a X X X X X 3 3 3 3 0 0 V /././.u u u C w > /./././././././././././././././././.",
"/./.7 ` A W a /./././././././.o 0 V 0 0 7 7 7 7 7 7 7 7 7 X X X + @ V /./././././.i @ @ 7 /././././././././././././././././././.",
"/././.W R R a /././././././././.o = = = V D / / / / V 0 / $ 6 0 V 6 /./././././././././././././././././././././././././././././.",
"  Y @ C A a a /./././././././.o = j j = = D / @.+.+.#.#.+.#.X.d j d j /././././././././././././././././././././././././././././.",
"3 t T a A w a C /././././././.& j n n j = V #.5.6.$.#.+.O.+.#.+.O.j L /././././././././././././././././././././././././././././.",
"/./.3 5 7 a a a w Y r 3 6 /./.& x x n n = +.8.$.#.#.+.X.O.+.X.+.#.+.= /././././././././././././././././././././././././././././.",
"/././.w a a a a w t P Y Y L t 6 r j j d j h #.O.O.d +.+.+...X.X.#.$.$./././././././././././././././././././././././././././././.",
"/././.p a a a a p t P T Y L t 6 r j j d j d #.O.O.h +.+.+.X.X.X.+.$.$./././././././././././././././././././././././././././././.",
"/./././.p p p p t /./.6 6 { T P L Y 3 r 3 d & & & d #.O.X.X.O.#.+.+.7./././././././././././././././././././././././././././././.",
"/./././././././././././././.r 3 3 Y L Y L t @ + X } t @ +.O.#.+.d #.8.+.#./././././././././././././././././././././././././././.",
"/./././././././././././././././.= d 3 3 6 T Y @ + 6 @ 3 r @ t n j d #.$.$.*././././././././././././././././././././././././././.",
"/./././././././././././././././.= = j d ; d 3 @ @ t r t @ 3 6 t   /././././././././././././././././././././././././././././././.",
"/./././././././././././././././.= j j $.d d = d d t 3 @ @ r @ t d /././././././././././././././././././././././././././././././.",
"/././././././././././././././././.= j +.5.O.= = = Y @ P 3 t   @ d /././././././././././././././././././././././././././././././.",
"/././././././././././././././././.= = d 7.5.#.#.#.O.X.+.O.Y n d j /././././././././././././././././././././././././././././././.",
"/././././././././././././././././.2 = = #.$.+.O.O.X.+.O.+.O.) / D /././././././././././././././././././././././././././././././.",
"/./././././././././././././././././.2 = = +.#.+.+.O.+.O...+.#.#.8.5././././././././././././././././././././././././././././././.",
"/./././././././././././././././././.2 2 2 2 O.O.+.#.+.X.+.+.$.6.7./././././././././././././././././././././././././././././././.",
"/././././././././././././././././././.2 2 2 2 2 2 X.#.#.#.#.+.#.) /././././././././././././././././././././././././././././././.",
"/././././././././././././././././././.2 2 2 2 2 2 X.#.#.#.#.#.#.) /././././././././././././././././././././././././././././././.",
"/././././././././././././././././././././.: O : : V ) [ | | ] ) 0 /././././././././././././././././././././././././././././././.",
"/./././././././././././././././././././././.O O O / V V V V V z V /././././././././././././././././././././././././././././././.",
"/./././././././././././././././././././././.: & O V / V V D / ) V /././././././././././././././././././././././././././././././.",
"/./././././././././././././././././././././.: & O 0 / / / / / / D /././././././././././././././././././././././././././././././.",
"/./././././././././././././././././././././.: : : : S / ) / / / /./././././././././././././././././././././././././././././././.",
"/././././././././././././././././././././.2 : : : : V / ) ) / D /./././././././././././././././././././././././././././././././.",
"/././././././././././././././././././././.2 : : : : 0 ] | | [ D /./././././././././././././././././././././././././././././././.",
"/././././././././././././././././././././.2 : : : : S / ) ) V z /./././././././././././././././././././././././././././././././.",
"/./././././././././././././././././././././.: : : N ) x.x.x.<./ /./././././././././././././././././././././././././././././././.",
"/././././././././././././././././././././././././.) <.x.n.<.| / /./././././././././././././././././././././././././././././././.",
"/././././././././././././././././././././././././.) ) <.<.<.) / /./././././././././././././././././././././././././././././././.",
"/././././././././././././././././././././././././.U / -.-.-./ U /./././././././././././././././././././././././././././././././.",
"/././././././././././././././././././././././././.t S / ) / V t /./././././././././././././././././././././././././././././././.",
"/./././././././././././././././././././././././././.6 8 $ $ 6 6 /./././././././././././././././././././././././././././././././."
};
